<svg width="12" height="12" viewBox="0 0 12 12" fill="none" xmlns="http://www.w3.org/2000/svg">
<path d="M8.24964 2.10171C8.48867 2.23999 8.79453 2.1583 8.9328 1.91927C9.07107 1.68024 8.98939 1.37438 8.75036 1.23611L8.24964 2.10171ZM11.1536 4.07498C11.0569 3.81631 10.7688 3.68497 10.5102 3.78163C10.2515 3.87829 10.1202 4.16635 10.2168 4.42502L11.1536 4.07498ZM3.81235 4.60957C3.59672 4.43706 3.28207 4.47202 3.10957 4.68765C2.93706 4.90328 2.97202 5.21793 3.18765 5.39043L3.81235 4.60957ZM5.26321 6.41057L4.95086 6.801L5.26321 6.41057ZM6.6312 6.29867L6.25955 5.96418L6.6312 6.29867ZM10.8716 2.33448C11.0564 2.12923 11.0397 1.81308 10.8345 1.62835C10.6292 1.44362 10.3131 1.46026 10.1284 1.66552L10.8716 2.33448ZM10.5 6C10.5 8.48528 8.48528 10.5 6 10.5V11.5C9.03757 11.5 11.5 9.03757 11.5 6H10.5ZM6 10.5C3.51472 10.5 1.5 8.48528 1.5 6H0.5C0.5 9.03757 2.96243 11.5 6 11.5V10.5ZM1.5 6C1.5 3.51472 3.51472 1.5 6 1.5V0.5C2.96243 0.5 0.5 2.96243 0.5 6H1.5ZM6 1.5C6.82048 1.5 7.58826 1.71913 8.24964 2.10171L8.75036 1.23611C7.94088 0.767846 7.00096 0.5 6 0.5V1.5ZM10.2168 4.42502C10.3998 4.91455 10.5 5.445 10.5 6H11.5C11.5 5.32368 11.3777 4.67478 11.1536 4.07498L10.2168 4.42502ZM3.18765 5.39043L4.95086 6.801L5.57556 6.02013L3.81235 4.60957L3.18765 5.39043ZM7.00285 6.63315L10.8716 2.33448L10.1284 1.66552L6.25955 5.96418L7.00285 6.63315ZM4.95086 6.801C5.57135 7.29739 6.47128 7.22378 7.00285 6.63315L6.25955 5.96418C6.08237 6.16106 5.78239 6.1856 5.57556 6.02013L4.95086 6.801Z" fill="#C8C8C8"/>
</svg>
