<svg width="100" height="100" viewBox="0 0 100 100" fill="none" xmlns="http://www.w3.org/2000/svg">
<path d="M69.8208 12.5L61.4875 20.8333H20.8333V79.1667H79.1667V38.5125L87.5 30.1792V83.3333C87.5 84.4384 87.061 85.4982 86.2796 86.2796C85.4982 87.061 84.4384 87.5 83.3333 87.5H16.6667C15.5616 87.5 14.5018 87.061 13.7204 86.2796C12.939 85.4982 12.5 84.4384 12.5 83.3333V16.6667C12.5 15.5616 12.939 14.5018 13.7204 13.7204C14.5018 12.939 15.5616 12.5 16.6667 12.5H69.8208ZM85.3542 8.75L91.25 14.65L52.95 52.95L47.0667 52.9625L47.0583 47.0583L85.3542 8.75Z" fill="black"/>
</svg>
