<svg width="95" height="16" viewBox="0 0 95 16" fill="none" xmlns="http://www.w3.org/2000/svg">
<g clip-path="url(#clip0_456_341)">
<path d="M10.4545 4.42657C9.44161 3.68158 8.57173 3.42931 7.76937 3.42931C5.3901 3.42931 3.8251 5.23463 3.8251 7.53266C3.8251 9.69273 5.35832 11.6045 7.76937 11.6045C9.53297 11.6045 11.1099 10.5678 11.6699 8.61664H7.24108V5.15185H15.1256C15.3799 5.99144 15.495 6.7995 15.495 7.57602C15.495 11.8016 12.2062 15.0456 7.76937 15.0456C3.33257 15.0456 0 11.9592 0 7.53266C0 3.10609 3.32065 0 7.76937 0C9.36614 0 10.9073 0.429649 12.5557 1.54122L10.4505 4.42657H10.4545Z" fill="#0D0D0D"/>
<path d="M25.4848 4.42657C24.4719 3.68158 23.602 3.42931 22.7997 3.42931C20.4204 3.42931 18.8554 5.23463 18.8554 7.53266C18.8554 9.69273 20.3886 11.6045 22.7997 11.6045C24.5633 11.6045 26.1402 10.5678 26.7002 8.61664H22.2714V5.15185H30.1559C30.4102 5.99144 30.5253 6.7995 30.5253 7.57602C30.5253 11.8016 27.2365 15.0456 22.7997 15.0456C18.3629 15.0456 15.0303 11.9632 15.0303 7.5366C15.0303 3.11003 18.351 0 22.7997 0C24.3964 0 25.9376 0.429649 27.586 1.54122L25.4808 4.42657H25.4848Z" fill="#0D0D0D"/>
<path d="M45.083 0V3.46084H40.2728V15.0417H36.4676V3.46084H31.6812V0H45.083Z" fill="#0D0D0D"/>
<path d="M44.7454 7.52083C44.7454 3.28347 48.0104 0 52.4949 0C56.9793 0 60.2444 3.28347 60.2444 7.52083C60.2444 11.7582 56.9793 15.0417 52.4949 15.0417C48.0104 15.0417 44.7454 11.7582 44.7454 7.52083ZM48.5943 7.52083C48.5943 9.79522 50.0838 11.5926 52.4949 11.5926C54.9059 11.5926 56.3954 9.79916 56.3954 7.52083C56.3954 5.24251 54.9059 3.44114 52.4949 3.44114C50.0838 3.44114 48.5943 5.24645 48.5943 7.52083Z" fill="#0D0D0D"/>
<path d="M63.8431 0L66.0635 8.84132L68.6096 0H71.7594L74.2976 8.84132L76.518 0H80.4622L76.4345 15.0417H72.8915L70.1865 6.60635L67.4815 15.0417H63.9305L59.9107 0H63.8431Z" fill="#0D0D0D"/>
<path d="M92.8551 15.0417L84.8236 6.55511V15.0417H81.0382V0H83.1751L91.2186 8.48656V0H95.004V15.0417H92.8591H92.8551Z" fill="#0D0D0D"/>
</g>
<defs>
<clipPath id="clip0_456_341">
<rect width="95" height="15.0417" fill="white"/>
</clipPath>
</defs>
</svg>
