<svg width="19" height="19" viewBox="0 0 19 19" fill="none" xmlns="http://www.w3.org/2000/svg">
<path d="M16.4697 17.5303L17 18.0607L18.0607 17L17.5303 16.4697L16.4697 17.5303ZM15.9303 14.8697L15.4 14.3394L14.3394 15.4L14.8697 15.9303L15.9303 14.8697ZM1.75 8.60001C1.75 4.81685 4.81685 1.75 8.6 1.75V0.25C3.98842 0.25 0.25 3.98843 0.25 8.60001H1.75ZM8.6 1.75C12.3831 1.75 15.45 4.81685 15.45 8.60001H16.95C16.95 3.98843 13.2116 0.25 8.6 0.25V1.75ZM15.45 8.60001C15.45 12.3832 12.3831 15.45 8.6 15.45V16.95C13.2116 16.95 16.95 13.2116 16.95 8.60001H15.45ZM8.6 15.45C4.81685 15.45 1.75 12.3832 1.75 8.60001H0.25C0.25 13.2116 3.98842 16.95 8.6 16.95V15.45ZM17.5303 16.4697L15.9303 14.8697L14.8697 15.9303L16.4697 17.5303L17.5303 16.4697Z" fill="#0D0D0D"/>
</svg>
