<svg width="100" height="100" viewBox="0 0 100 100" fill="none" xmlns="http://www.w3.org/2000/svg">
<path d="M79.1667 87.5H20.8334C19.7283 87.5 18.6685 87.061 17.8871 86.2796C17.1057 85.4982 16.6667 84.4384 16.6667 83.3333V45.8333H4.16669L47.1959 6.71666C47.963 6.01865 48.9629 5.63184 50 5.63184C51.0372 5.63184 52.0371 6.01865 52.8042 6.71666L95.8334 45.8333H83.3334V83.3333C83.3334 84.4384 82.8944 85.4982 82.113 86.2796C81.3316 87.061 80.2718 87.5 79.1667 87.5ZM54.1667 79.1667H75V38.1542L50 15.4292L25 38.1542V79.1667H45.8334V54.1667H54.1667V79.1667Z" fill="#0D0D0D"/>
</svg>
