<svg width="100" height="100" viewBox="0 0 100 100" fill="none" xmlns="http://www.w3.org/2000/svg">
<path d="M87.4999 62.5V75H99.9999V83.3333H87.4999V95.8333H79.1666V83.3333H66.6666V75H79.1666V62.5H87.4999ZM87.5332 12.5C89.8166 12.5 91.6666 14.3542 91.6666 16.6375V55.5917C88.9901 54.6462 86.1719 54.1643 83.3332 54.1667V20.8333H16.6666L16.6708 79.1667L55.3874 40.4458C56.1039 39.727 57.0583 39.2947 58.0712 39.2303C59.0841 39.1658 60.0856 39.4736 60.8874 40.0958L61.2749 40.45L76.0499 55.2417C72.8193 56.2261 69.8214 57.8546 67.2372 60.029C64.6529 62.2034 62.5358 64.8786 61.0135 67.8933C59.4911 70.9081 58.595 74.1999 58.3793 77.5703C58.1636 80.9407 58.6327 84.3199 59.7583 87.5042L12.4666 87.5C11.37 87.4989 10.3187 87.0625 9.54362 86.2867C8.76859 85.5109 8.33325 84.4591 8.33325 83.3625V16.6375C8.34088 15.5432 8.77867 14.4959 9.55206 13.7217C10.3254 12.9476 11.3723 12.5087 12.4666 12.5H87.5332ZM33.3333 29.1667C35.5434 29.1667 37.663 30.0446 39.2258 31.6074C40.7886 33.1702 41.6666 35.2899 41.6666 37.5C41.6666 39.7101 40.7886 41.8298 39.2258 43.3926C37.663 44.9554 35.5434 45.8333 33.3333 45.8333C31.1231 45.8333 29.0035 44.9554 27.4407 43.3926C25.8779 41.8298 24.9999 39.7101 24.9999 37.5C24.9999 35.2899 25.8779 33.1702 27.4407 31.6074C29.0035 30.0446 31.1231 29.1667 33.3333 29.1667V29.1667Z" fill="#FF613F"/>
</svg>
