<svg width="100" height="100" viewBox="0 0 100 100" fill="none" xmlns="http://www.w3.org/2000/svg">
<path d="M51.725 20.8333H87.5C88.6051 20.8333 89.6649 21.2723 90.4463 22.0537C91.2277 22.8351 91.6667 23.8949 91.6667 25V83.3333C91.6667 84.4384 91.2277 85.4982 90.4463 86.2796C89.6649 87.061 88.6051 87.5 87.5 87.5H12.5C11.395 87.5 10.3352 87.061 9.55376 86.2796C8.77236 85.4982 8.33337 84.4384 8.33337 83.3333V16.6667C8.33337 15.5616 8.77236 14.5018 9.55376 13.7204C10.3352 12.939 11.395 12.5 12.5 12.5H43.3917L51.725 20.8333ZM16.6667 20.8333V79.1667H83.3334V29.1667H48.275L39.9417 20.8333H16.6667ZM45.8334 50V37.5H54.1667V50H66.6667V58.3333H54.1667V70.8333H45.8334V58.3333H33.3334V50H45.8334Z" fill="#0D0D0D"/>
</svg>
