<svg width="100" height="100" viewBox="0 0 100 100" fill="none" xmlns="http://www.w3.org/2000/svg">
<path d="M50.0041 18.3707C59.7916 9.58325 74.9166 9.87492 84.3458 19.3208C93.7708 28.7708 94.0958 43.8208 85.3291 53.6374L49.9958 89.0208L14.6708 53.6374C5.90411 43.8208 6.23328 28.7458 15.6541 19.3208C25.0916 9.88742 40.1874 9.57075 50.0041 18.3707ZM78.4458 25.2083C72.1958 18.9499 62.1124 18.6958 55.5708 24.5708L50.0083 29.5624L44.4416 24.5749C37.8791 18.6916 27.8166 18.9499 21.5499 25.2166C15.3416 31.4249 15.0291 41.3624 20.7499 47.9291L49.9999 77.2249L79.2499 47.9333C84.9749 41.3624 84.6624 31.4374 78.4458 25.2083Z" fill="#0D0D0D"/>
</svg>
