<svg width="100" height="100" viewBox="0 0 100 100" fill="none" xmlns="http://www.w3.org/2000/svg">
<path fill-rule="evenodd" clip-rule="evenodd" d="M45.4546 27.9359C45.4546 25.0594 47.7864 22.7275 50.6629 22.7275C53.5394 22.7275 55.8713 25.0594 55.8713 27.9359C55.8713 30.8124 53.5394 33.1442 50.6629 33.1442C47.7864 33.1442 45.4546 30.8124 45.4546 27.9359ZM45.4546 48.7692C45.4546 45.8927 47.7864 43.5609 50.6629 43.5609C53.5394 43.5609 55.8713 45.8927 55.8713 48.7692C55.8713 51.6457 53.5394 53.9775 50.6629 53.9775C47.7864 53.9775 45.4546 51.6457 45.4546 48.7692ZM50.6629 64.3942C47.7864 64.3942 45.4546 66.7261 45.4546 69.6026C45.4546 72.479 47.7864 74.8109 50.6629 74.8109C53.5394 74.8109 55.8713 72.479 55.8713 69.6026C55.8713 66.7261 53.5394 64.3942 50.6629 64.3942Z" fill="#0D0D0D"/>
</svg>
