<svg width="100" height="95" viewBox="0 0 100 95" fill="none" xmlns="http://www.w3.org/2000/svg">
<path fill-rule="evenodd" clip-rule="evenodd" d="M41.6666 24.7394C41.6666 22.0068 43.9985 19.7915 46.875 19.7915C49.7514 19.7915 52.0833 22.0068 52.0833 24.7394C52.0833 27.4721 49.7514 29.6873 46.875 29.6873C43.9985 29.6873 41.6666 27.4721 41.6666 24.7394ZM41.6666 44.5311C41.6666 41.7984 43.9985 39.5832 46.875 39.5832C49.7514 39.5832 52.0833 41.7984 52.0833 44.5311C52.0833 47.2637 49.7514 49.479 46.875 49.479C43.9985 49.479 41.6666 47.2637 41.6666 44.5311ZM46.875 59.3748C43.9985 59.3748 41.6666 61.5901 41.6666 64.3228C41.6666 67.0554 43.9985 69.2707 46.875 69.2707C49.7514 69.2707 52.0833 67.0554 52.0833 64.3228C52.0833 61.5901 49.7514 59.3748 46.875 59.3748Z" fill="#28303F"/>
</svg>
