<svg width="100" height="100" viewBox="0 0 100 100" fill="none" xmlns="http://www.w3.org/2000/svg">
<path d="M70.8333 38.3332L92.5541 23.1248C92.8664 22.9059 93.2329 22.7769 93.6135 22.7519C93.9941 22.7269 94.3742 22.8069 94.7125 22.9831C95.0508 23.1594 95.3342 23.4251 95.5318 23.7513C95.7294 24.0775 95.8337 24.4517 95.8333 24.8332V75.1665C95.8337 75.5479 95.7294 75.9221 95.5318 76.2484C95.3342 76.5746 95.0508 76.8403 94.7125 77.0165C94.3742 77.1927 93.9941 77.2727 93.6135 77.2477C93.2329 77.2228 92.8664 77.0938 92.5541 76.8748L70.8333 61.6665V79.1665C70.8333 80.2716 70.3943 81.3314 69.6129 82.1128C68.8315 82.8942 67.7717 83.3332 66.6666 83.3332H8.33329C7.22822 83.3332 6.16842 82.8942 5.38701 82.1128C4.60561 81.3314 4.16663 80.2716 4.16663 79.1665V20.8332C4.16663 19.7281 4.60561 18.6683 5.38701 17.8869C6.16842 17.1055 7.22822 16.6665 8.33329 16.6665H66.6666C67.7717 16.6665 68.8315 17.1055 69.6129 17.8869C70.3943 18.6683 70.8333 19.7281 70.8333 20.8332V38.3332ZM70.8333 51.4957L87.5 63.1623V36.8332L70.8333 48.4998V51.4915V51.4957ZM12.5 24.9998V74.9998H62.5V24.9998H12.5ZM20.8333 33.3332H29.1666V41.6665H20.8333V33.3332Z" fill="#0D0D0D"/>
</svg>
