<svg width="80" height="80" viewBox="0 0 80 80" fill="none" xmlns="http://www.w3.org/2000/svg">
<mask id="mask0_721_1397" style="mask-type:alpha" maskUnits="userSpaceOnUse" x="0" y="0" width="80" height="80">
<circle cx="40" cy="40" r="40" fill="#3C3C3C"/>
</mask>
<g mask="url(#mask0_721_1397)">
<circle cx="40" cy="40" r="39" fill="#FF876C" stroke="white" stroke-width="2"/>
<g clip-path="url(#clip0_721_1397)">
<path d="M52.4444 55.5556H27.5556V52.4445C27.5556 50.3817 28.375 48.4034 29.8336 46.9448C31.2922 45.4861 33.2705 44.6667 35.3333 44.6667H44.6667C46.7295 44.6667 48.7078 45.4861 50.1664 46.9448C51.625 48.4034 52.4444 50.3817 52.4444 52.4445V55.5556ZM40 41.5556C38.7743 41.5556 37.5607 41.3142 36.4283 40.8451C35.2959 40.3761 34.267 39.6886 33.4003 38.8219C32.5337 37.9552 31.8462 36.9263 31.3771 35.794C30.9081 34.6616 30.6667 33.4479 30.6667 32.2222C30.6667 30.9966 30.9081 29.7829 31.3771 28.6505C31.8462 27.5182 32.5337 26.4893 33.4003 25.6226C34.267 24.7559 35.2959 24.0684 36.4283 23.5994C37.5607 23.1303 38.7743 22.8889 40 22.8889C42.4754 22.8889 44.8493 23.8722 46.5997 25.6226C48.35 27.3729 49.3333 29.7469 49.3333 32.2222C49.3333 34.6976 48.35 37.0716 46.5997 38.8219C44.8493 40.5723 42.4754 41.5556 40 41.5556V41.5556Z" fill="white"/>
</g>
</g>
<defs>
<clipPath id="clip0_721_1397">
<rect width="37.3333" height="37.3333" fill="white" transform="translate(21.3333 21.3333)"/>
</clipPath>
</defs>
</svg>
