<svg width="100" height="100" viewBox="0 0 100 100" fill="none" xmlns="http://www.w3.org/2000/svg">
<path d="M16.6666 91.6665C16.6666 82.826 20.1785 74.3475 26.4297 68.0963C32.6809 61.8451 41.1594 58.3332 50 58.3332C58.8405 58.3332 67.319 61.8451 73.5702 68.0963C79.8214 74.3475 83.3333 82.826 83.3333 91.6665H75C75 85.0361 72.366 78.6772 67.6776 73.9888C62.9892 69.3004 56.6304 66.6665 50 66.6665C43.3695 66.6665 37.0107 69.3004 32.3223 73.9888C27.6339 78.6772 25 85.0361 25 91.6665H16.6666ZM50 54.1665C36.1875 54.1665 25 42.979 25 29.1665C25 15.354 36.1875 4.1665 50 4.1665C63.8125 4.1665 75 15.354 75 29.1665C75 42.979 63.8125 54.1665 50 54.1665ZM50 45.8332C59.2083 45.8332 66.6666 38.3748 66.6666 29.1665C66.6666 19.9582 59.2083 12.4998 50 12.4998C40.7916 12.4998 33.3333 19.9582 33.3333 29.1665C33.3333 38.3748 40.7916 45.8332 50 45.8332Z" fill="#0D0D0D"/>
</svg>
