<svg width="24" height="24" viewBox="0 0 24 24" fill="none" xmlns="http://www.w3.org/2000/svg">
<circle cx="12" cy="12" r="12" fill="white"/>
<path d="M7.91667 16.0834H8.7415L14.1747 10.6502L13.3498 9.82538L7.91667 15.2585V16.0834ZM17.25 17.25H6.75V14.775L14.5871 6.93788C14.6965 6.82852 14.8448 6.76709 14.9995 6.76709C15.1542 6.76709 15.3025 6.82852 15.4119 6.93788L17.0622 8.58813C17.1715 8.69752 17.233 8.84587 17.233 9.00055C17.233 9.15523 17.1715 9.30357 17.0622 9.41297L10.3917 16.0834H17.25V17.25ZM14.1747 9.00055L14.9995 9.82538L15.8243 9.00055L14.9995 8.17572L14.1747 9.00055Z" fill="#9E9E9E"/>
</svg>
