<svg width="17" height="17" viewBox="0 0 17 17" fill="none" xmlns="http://www.w3.org/2000/svg">
<circle cx="8.5" cy="8.5" r="8.5" fill="#C4C4C4"/>
<path d="M11.3536 6.35359L11.7071 6.00003L11 5.29292L10.6464 5.64648L11.3536 6.35359ZM5.64645 10.6464L5.29289 11L6 11.7071L6.35355 11.3536L5.64645 10.6464ZM10.6464 11.3535L11 11.7071L11.7071 11L11.3536 10.6464L10.6464 11.3535ZM6.35355 5.64645L6 5.29289L5.29289 6L5.64645 6.35355L6.35355 5.64645ZM10.6464 5.64648L5.64645 10.6464L6.35355 11.3536L11.3536 6.35359L10.6464 5.64648ZM11.3536 10.6464L6.35355 5.64645L5.64645 6.35355L10.6464 11.3535L11.3536 10.6464Z" fill="white"/>
</svg>
