<svg width="100" height="100" viewBox="0 0 100 100" fill="none" xmlns="http://www.w3.org/2000/svg">
<path d="M45.8333 8C66.5333 8 83.3333 24.8 83.3333 45.5C83.3333 66.2 66.5333 83 45.8333 83C25.1333 83 8.33331 66.2 8.33331 45.5C8.33331 24.8 25.1333 8 45.8333 8ZM45.8333 74.6667C61.9458 74.6667 75 61.6125 75 45.5C75 29.3833 61.9458 16.3333 45.8333 16.3333C29.7166 16.3333 16.6666 29.3833 16.6666 45.5C16.6666 61.6125 29.7166 74.6667 45.8333 74.6667ZM81.1875 74.9625L92.975 86.7458L87.0791 92.6417L75.2958 80.8542L81.1875 74.9625Z" fill="#0D0D0D"/>
</svg>
