<svg width="20" height="20" viewBox="0 0 20 20" fill="none" xmlns="http://www.w3.org/2000/svg">
<path d="M18.5 4.15C18.5 5.61355 17.3136 6.8 15.85 6.8V7.8C17.8658 7.8 19.5 6.16584 19.5 4.15H18.5ZM13.2 4.15C13.2 2.68645 14.3864 1.5 15.85 1.5V0.5C13.8342 0.5 12.2 2.13416 12.2 4.15H13.2ZM15.85 1.5C17.3136 1.5 18.5 2.68645 18.5 4.15H19.5C19.5 2.13416 17.8658 0.5 15.85 0.5V1.5ZM18.5 15.85C18.5 17.3136 17.3136 18.5 15.85 18.5V19.5C17.8658 19.5 19.5 17.8658 19.5 15.85H18.5ZM15.85 18.5C14.3864 18.5 13.2 17.3136 13.2 15.85H12.2C12.2 17.8658 13.8342 19.5 15.85 19.5V18.5ZM15.85 13.2C17.3136 13.2 18.5 14.3864 18.5 15.85H19.5C19.5 13.8342 17.8658 12.2 15.85 12.2V13.2ZM4.15 12.65C2.68645 12.65 1.5 11.4636 1.5 10H0.5C0.5 12.0158 2.13416 13.65 4.15 13.65V12.65ZM1.5 10C1.5 8.53645 2.68645 7.35 4.15 7.35V6.35C2.13416 6.35 0.5 7.98416 0.5 10H1.5ZM4.15 7.35C5.18673 7.35 6.08534 7.94525 6.52102 8.81492L7.4151 8.36701C6.81646 7.17207 5.57969 6.35 4.15 6.35V7.35ZM6.52102 8.81492C6.69939 9.17095 6.8 9.57301 6.8 10H7.8C7.8 9.41402 7.66154 8.85893 7.4151 8.36701L6.52102 8.81492ZM6.8 10C6.8 10.427 6.69939 10.829 6.52102 11.1851L7.4151 11.633C7.66154 11.1411 7.8 10.586 7.8 10H6.8ZM6.52102 11.1851C6.08534 12.0547 5.18673 12.65 4.15 12.65V13.65C5.57969 13.65 6.81646 12.8279 7.4151 11.633L6.52102 11.1851ZM7.19167 9.03818L13.2555 6.00624L12.8083 5.11182L6.74445 8.14376L7.19167 9.03818ZM15.85 6.8C14.8133 6.8 13.9147 6.20474 13.479 5.33508L12.5849 5.78299C13.1835 6.97793 14.4203 7.8 15.85 7.8V6.8ZM13.479 5.33508C13.3006 4.97904 13.2 4.57699 13.2 4.15H12.2C12.2 4.73598 12.3385 5.29107 12.5849 5.78299L13.479 5.33508ZM13.2555 13.9938L7.19167 10.9618L6.74445 11.8562L12.8083 14.8882L13.2555 13.9938ZM13.2 15.85C13.2 15.423 13.3006 15.021 13.479 14.6649L12.5849 14.217C12.3385 14.7089 12.2 15.264 12.2 15.85H13.2ZM13.479 14.6649C13.9147 13.7953 14.8133 13.2 15.85 13.2V12.2C14.4203 12.2 13.1835 13.0221 12.5849 14.217L13.479 14.6649Z" fill="#0D0D0D"/>
</svg>
