<svg width="100" height="100" viewBox="0 0 100 100" fill="none" xmlns="http://www.w3.org/2000/svg">
<path d="M70.8333 25.0002H91.6666V33.3335H83.3333V87.5002C83.3333 88.6052 82.8943 89.665 82.1129 90.4464C81.3315 91.2279 80.2717 91.6668 79.1666 91.6668H20.8333C19.7282 91.6668 18.6684 91.2279 17.887 90.4464C17.1056 89.665 16.6666 88.6052 16.6666 87.5002V33.3335H8.33325V25.0002H29.1666V12.5002C29.1666 11.3951 29.6056 10.3353 30.387 9.55388C31.1684 8.77248 32.2282 8.3335 33.3333 8.3335H66.6666C67.7717 8.3335 68.8315 8.77248 69.6129 9.55388C70.3943 10.3353 70.8333 11.3951 70.8333 12.5002V25.0002ZM74.9999 33.3335H24.9999V83.3335H74.9999V33.3335ZM37.4999 45.8335H45.8333V70.8335H37.4999V45.8335ZM54.1666 45.8335H62.4999V70.8335H54.1666V45.8335ZM37.4999 16.6668V25.0002H62.4999V16.6668H37.4999Z" fill="black"/>
</svg>
