<svg width="100" height="100" viewBox="0 0 100 100" fill="none" xmlns="http://www.w3.org/2000/svg">
<path d="M54.4166 33.7915L60.3125 39.6873C63.0212 42.3957 65.1698 45.6112 66.6358 49.15C68.1017 52.6889 68.8562 56.4819 68.8562 60.3123C68.8562 64.1428 68.1017 67.9358 66.6358 71.4746C65.1698 75.0135 63.0212 78.2289 60.3125 80.9373L58.8375 82.4082C53.3674 87.8782 45.9483 90.9513 38.2125 90.9513C30.4766 90.9513 23.0576 87.8782 17.5875 82.4082C12.1174 76.9381 9.04431 69.519 9.04431 61.7832C9.04431 54.0473 12.1174 46.6282 17.5875 41.1582L23.4833 47.054C21.5348 48.9855 19.9871 51.2828 18.9288 53.814C17.8706 56.3453 17.3228 59.0606 17.3168 61.8041C17.3107 64.5477 17.8467 67.2654 18.8938 69.8012C19.941 72.3371 21.4787 74.6412 23.4186 76.5811C25.3586 78.5211 27.6627 80.0588 30.1985 81.106C32.7344 82.1531 35.4521 82.689 38.1957 82.683C40.9392 82.677 43.6545 82.1292 46.1858 81.0709C48.717 80.0127 51.0143 78.4649 52.9458 76.5165L54.4208 75.0415C58.3265 71.1347 60.5205 65.8366 60.5205 60.3123C60.5205 54.7881 58.3265 49.49 54.4208 45.5832L48.525 39.6873L54.4208 33.7957L54.4166 33.7915ZM82.4083 58.8373L76.5166 52.9457C78.4651 51.0142 80.0129 48.7169 81.0711 46.1856C82.1293 43.6544 82.6772 40.9391 82.6832 38.1955C82.6892 35.452 82.1532 32.7343 81.1061 30.1984C80.059 27.6625 78.5213 25.3585 76.5813 23.4185C74.6413 21.4785 72.3373 19.9408 69.8014 18.8937C67.2655 17.8466 64.5478 17.3106 61.8043 17.3166C59.0607 17.3226 56.3454 17.8705 53.8142 18.9287C51.2829 19.9869 48.9856 21.5347 47.0541 23.4832L45.5791 24.9582C41.6735 28.865 39.4794 34.1631 39.4794 39.6873C39.4794 45.2116 41.6735 50.5097 45.5791 54.4165L51.475 60.3123L45.5791 66.204L39.6875 60.3123C36.9788 57.6039 34.8301 54.3885 33.3642 50.8496C31.8982 47.3108 31.1437 43.5178 31.1437 39.6873C31.1437 35.8569 31.8982 32.0639 33.3642 28.525C34.8301 24.9862 36.9788 21.7707 39.6875 19.0623L41.1625 17.5915C46.6326 12.1214 54.0516 9.04834 61.7875 9.04834C69.5233 9.04834 76.9424 12.1214 82.4125 17.5915C87.8826 23.0616 90.9556 30.4806 90.9556 38.2165C90.9556 45.9524 87.8826 53.3714 82.4125 58.8415L82.4083 58.8373Z" fill="#0D0D0D"/>
</svg>
