<svg width="100" height="100" viewBox="0 0 100 100" fill="none" xmlns="http://www.w3.org/2000/svg">
<path d="M66.6667 16.6665C68.9667 16.6665 70.8334 18.5332 70.8334 20.8332V38.3332L92.5542 23.1248C93.4959 22.4665 94.7959 22.6957 95.4584 23.6415C95.7001 23.9915 95.8334 24.4082 95.8334 24.8332V75.1665C95.8334 76.3165 94.9001 77.2498 93.7501 77.2498C93.3209 77.2498 92.9042 77.1165 92.5542 76.8748L70.8334 61.6665V79.1665C70.8334 81.4665 68.9667 83.3332 66.6667 83.3332H8.33341C6.03341 83.3332 4.16675 81.4665 4.16675 79.1665V20.8332C4.16675 18.5332 6.03341 16.6665 8.33341 16.6665H66.6667ZM62.5001 24.9998H12.5001V74.9998H62.5001V24.9998ZM37.5001 33.3332L54.1667 49.9998H41.6667V66.6665H33.3334V49.9998H20.8334L37.5001 33.3332ZM87.5001 36.8373L70.8334 48.504V51.4957L87.5001 63.1623V36.8332V36.8373Z" fill="#0D0D0D"/>
</svg>
