<svg width="100" height="100" viewBox="0 0 100 100" fill="none" xmlns="http://www.w3.org/2000/svg">
<path d="M49.9999 13C72.4666 13 91.1583 29.1667 95.0791 50.5C91.1625 71.8333 72.4666 88 49.9999 88C27.5333 88 8.84161 71.8333 4.92078 50.5C8.83744 29.1667 27.5333 13 49.9999 13ZM49.9999 79.6667C58.4977 79.6648 66.7432 76.7784 73.3868 71.4799C80.0305 66.1813 84.6787 58.7845 86.5708 50.5C84.6718 42.2221 80.0205 34.8334 73.3775 29.5418C66.7346 24.2502 58.4929 21.3689 49.9999 21.3689C41.507 21.3689 33.2653 24.2502 26.6223 29.5418C19.9794 34.8334 15.3281 42.2221 13.4291 50.5C15.3212 58.7845 19.9694 66.1813 26.613 71.4799C33.2567 76.7784 41.5022 79.6648 49.9999 79.6667ZM49.9999 69.25C45.0271 69.25 40.258 67.2746 36.7417 63.7582C33.2254 60.2419 31.2499 55.4728 31.2499 50.5C31.2499 45.5272 33.2254 40.7581 36.7417 37.2417C40.258 33.7254 45.0271 31.75 49.9999 31.75C54.9728 31.75 59.7419 33.7254 63.2582 37.2417C66.7745 40.7581 68.75 45.5272 68.75 50.5C68.75 55.4728 66.7745 60.2419 63.2582 63.7582C59.7419 67.2746 54.9728 69.25 49.9999 69.25ZM49.9999 60.9167C52.7626 60.9167 55.4121 59.8192 57.3656 57.8657C59.3191 55.9122 60.4166 53.2627 60.4166 50.5C60.4166 47.7373 59.3191 45.0878 57.3656 43.1343C55.4121 41.1808 52.7626 40.0833 49.9999 40.0833C47.2373 40.0833 44.5878 41.1808 42.6343 43.1343C40.6807 45.0878 39.5833 47.7373 39.5833 50.5C39.5833 53.2627 40.6807 55.9122 42.6343 57.8657C44.5878 59.8192 47.2373 60.9167 49.9999 60.9167Z" fill="#0D0D0D"/>
</svg>
