<svg width="14" height="9" viewBox="0 0 14 9" fill="none" xmlns="http://www.w3.org/2000/svg">
<path d="M12.7617 4.01713C12.9151 4.18362 13 4.39991 13 4.62418C13 4.84845 12.9151 5.06474 12.7617 5.23123C11.7906 6.25506 9.58029 8.24836 7 8.24836C4.41971 8.24836 2.20935 6.25506 1.23827 5.23123C1.0849 5.06474 1 4.84845 1 4.62418C1 4.39991 1.0849 4.18362 1.23827 4.01713C2.20935 2.9933 4.41971 1 7 1C9.58029 1 11.7906 2.9933 12.7617 4.01713Z" stroke="#9E9E9E" stroke-linecap="round" stroke-linejoin="round"/>
<path d="M6.99994 6.43619C8.02149 6.43619 8.84961 5.62489 8.84961 4.6241C8.84961 3.62331 8.02149 2.81201 6.99994 2.81201C5.97839 2.81201 5.15027 3.62331 5.15027 4.6241C5.15027 5.62489 5.97839 6.43619 6.99994 6.43619Z" stroke="#9E9E9E" stroke-linecap="round" stroke-linejoin="round"/>
</svg>
